<svg xmlns="http://www.w3.org/2000/svg" viewBox="0 0 500 160">
  <defs>
    <clipPath id="shape">
      <path d="M30 10 L470 10 Q490 10 490 30 L490 130 Q490 150 470 150 L30 150 Q10 150 10 130 L10 30 Q10 10 30 10 Z"/>
    </clipPath>
  </defs>
  <rect x="5" y="5" width="490" height="150" rx="25" ry="25" fill="#005BAC"/>
  <path d="M45 35 L45 125 L95 125 Q145 125 160 100 Q175 75 160 50 Q145 35 95 35 Z M75 60 L100 60 Q125 60 130 80 Q135 100 110 100 L75 100 Z" fill="white"/>
  <path d="M180 35 L180 125 L210 125 L210 90 L260 90 L260 125 L290 125 L290 35 L260 35 L260 65 L210 65 L210 35 Z" fill="white"/>
  <path d="M320 65 Q320 50 340 42 Q360 35 390 35 Q420 35 440 45 L430 65 Q415 55 390 55 Q370 55 370 65 Q370 72 390 75 Q430 82 445 92 Q460 102 455 115 Q450 130 420 135 Q400 140 370 135 Q340 130 320 115 L335 98 Q355 112 380 115 Q405 115 408 105 Q410 98 390 93 Q355 85 340 75 Q320 65 320 65 Z" fill="white"/>
</svg>
